<svg xmlns="http://www.w3.org/2000/svg" viewBox="0 0 32 32" shape-rendering="crispEdges"><rect x="11" y="1" width="10" height="1" fill="#141414"/><rect x="8" y="2" width="16" height="1" fill="#141414"/><rect x="7" y="3" width="4" height="1" fill="#141414"/><rect x="11" y="3" width="3" height="1" fill="#2fa84a"/><rect x="14" y="3" width="4" height="1" fill="#3b5bd0"/><rect x="18" y="3" width="3" height="1" fill="#2fa84a"/><rect x="21" y="3" width="4" height="1" fill="#141414"/><rect x="6" y="4" width="3" height="1" fill="#141414"/><rect x="9" y="4" width="6" height="1" fill="#2fa84a"/><rect x="15" y="4" width="2" height="1" fill="#3b5bd0"/><rect x="17" y="4" width="6" height="1" fill="#2fa84a"/><rect x="23" y="4" width="3" height="1" fill="#141414"/><rect x="5" y="5" width="3" height="1" fill="#141414"/><rect x="8" y="5" width="7" height="1" fill="#2fa84a"/><rect x="15" y="5" width="2" height="1" fill="#3b5bd0"/><rect x="17" y="5" width="7" height="1" fill="#2fa84a"/><rect x="24" y="5" width="3" height="1" fill="#141414"/><rect x="4" y="6" width="3" height="1" fill="#141414"/><rect x="7" y="6" width="6" height="1" fill="#2fa84a"/><rect x="13" y="6" width="6" height="1" fill="#141414"/><rect x="19" y="6" width="6" height="1" fill="#2fa84a"/><rect x="25" y="6" width="3" height="1" fill="#141414"/><rect x="3" y="7" width="3" height="1" fill="#141414"/><rect x="6" y="7" width="1" height="1" fill="#3b5bd0"/><rect x="7" y="7" width="5" height="1" fill="#2fa84a"/><rect x="12" y="7" width="2" height="1" fill="#141414"/><rect x="14" y="7" width="4" height="1" fill="#ffffff"/><rect x="18" y="7" width="2" height="1" fill="#141414"/><rect x="20" y="7" width="5" height="1" fill="#2fa84a"/><rect x="25" y="7" width="1" height="1" fill="#3b5bd0"/><rect x="26" y="7" width="3" height="1" fill="#141414"/><rect x="2" y="8" width="8" height="1" fill="#141414"/><rect x="10" y="8" width="2" height="1" fill="#2fa84a"/><rect x="12" y="8" width="1" height="1" fill="#141414"/><rect x="13" y="8" width="6" height="1" fill="#ffffff"/><rect x="19" y="8" width="1" height="1" fill="#141414"/><rect x="20" y="8" width="2" height="1" fill="#2fa84a"/><rect x="22" y="8" width="8" height="1" fill="#141414"/><rect x="2" y="9" width="4" height="1" fill="#141414"/><rect x="6" y="9" width="3" height="1" fill="#ffffff"/><rect x="9" y="9" width="4" height="1" fill="#141414"/><rect x="13" y="9" width="6" height="1" fill="#ffffff"/><rect x="19" y="9" width="4" height="1" fill="#141414"/><rect x="23" y="9" width="3" height="1" fill="#ffffff"/><rect x="26" y="9" width="4" height="1" fill="#141414"/><rect x="2" y="10" width="3" height="1" fill="#141414"/><rect x="5" y="10" width="6" height="1" fill="#ffffff"/><rect x="11" y="10" width="2" height="1" fill="#141414"/><rect x="13" y="10" width="6" height="1" fill="#ffffff"/><rect x="19" y="10" width="2" height="1" fill="#141414"/><rect x="21" y="10" width="6" height="1" fill="#ffffff"/><rect x="27" y="10" width="3" height="1" fill="#141414"/><rect x="1" y="11" width="2" height="1" fill="#141414"/><rect x="3" y="11" width="1" height="1" fill="#3b5bd0"/><rect x="4" y="11" width="1" height="1" fill="#141414"/><rect x="5" y="11" width="7" height="1" fill="#ffffff"/><rect x="12" y="11" width="1" height="1" fill="#141414"/><rect x="13" y="11" width="6" height="1" fill="#ffffff"/><rect x="19" y="11" width="1" height="1" fill="#141414"/><rect x="20" y="11" width="7" height="1" fill="#ffffff"/><rect x="27" y="11" width="1" height="1" fill="#141414"/><rect x="28" y="11" width="1" height="1" fill="#3b5bd0"/><rect x="29" y="11" width="2" height="1" fill="#141414"/><rect x="1" y="12" width="2" height="1" fill="#141414"/><rect x="3" y="12" width="1" height="1" fill="#2fa84a"/><rect x="4" y="12" width="2" height="1" fill="#141414"/><rect x="6" y="12" width="7" height="1" fill="#ffffff"/><rect x="13" y="12" width="1" height="1" fill="#141414"/><rect x="14" y="12" width="4" height="1" fill="#ffffff"/><rect x="18" y="12" width="1" height="1" fill="#141414"/><rect x="19" y="12" width="7" height="1" fill="#ffffff"/><rect x="26" y="12" width="2" height="1" fill="#141414"/><rect x="28" y="12" width="1" height="1" fill="#2fa84a"/><rect x="29" y="12" width="2" height="1" fill="#141414"/><rect x="1" y="13" width="2" height="1" fill="#141414"/><rect x="3" y="13" width="2" height="1" fill="#2fa84a"/><rect x="5" y="13" width="2" height="1" fill="#141414"/><rect x="7" y="13" width="18" height="1" fill="#ffffff"/><rect x="25" y="13" width="2" height="1" fill="#141414"/><rect x="27" y="13" width="2" height="1" fill="#2fa84a"/><rect x="29" y="13" width="2" height="1" fill="#141414"/><rect x="1" y="14" width="2" height="1" fill="#141414"/><rect x="3" y="14" width="2" height="1" fill="#2fa84a"/><rect x="5" y="14" width="1" height="1" fill="#3b5bd0"/><rect x="6" y="14" width="2" height="1" fill="#141414"/><rect x="8" y="14" width="16" height="1" fill="#ffffff"/><rect x="24" y="14" width="2" height="1" fill="#141414"/><rect x="26" y="14" width="1" height="1" fill="#3b5bd0"/><rect x="27" y="14" width="2" height="1" fill="#2fa84a"/><rect x="29" y="14" width="2" height="1" fill="#141414"/><rect x="1" y="15" width="2" height="1" fill="#141414"/><rect x="3" y="15" width="2" height="1" fill="#2fa84a"/><rect x="5" y="15" width="2" height="1" fill="#3b5bd0"/><rect x="7" y="15" width="3" height="1" fill="#141414"/><rect x="10" y="15" width="12" height="1" fill="#ffffff"/><rect x="22" y="15" width="3" height="1" fill="#141414"/><rect x="25" y="15" width="2" height="1" fill="#3b5bd0"/><rect x="27" y="15" width="2" height="1" fill="#2fa84a"/><rect x="29" y="15" width="2" height="1" fill="#141414"/><rect x="1" y="16" width="2" height="1" fill="#141414"/><rect x="3" y="16" width="2" height="1" fill="#2fa84a"/><rect x="5" y="16" width="4" height="1" fill="#3b5bd0"/><rect x="9" y="16" width="2" height="1" fill="#141414"/><rect x="11" y="16" width="10" height="1" fill="#ffffff"/><rect x="21" y="16" width="2" height="1" fill="#141414"/><rect x="23" y="16" width="4" height="1" fill="#3b5bd0"/><rect x="27" y="16" width="2" height="1" fill="#2fa84a"/><rect x="29" y="16" width="2" height="1" fill="#141414"/><rect x="1" y="17" width="2" height="1" fill="#141414"/><rect x="3" y="17" width="1" height="1" fill="#2fa84a"/><rect x="4" y="17" width="6" height="1" fill="#3b5bd0"/><rect x="10" y="17" width="2" height="1" fill="#141414"/><rect x="12" y="17" width="8" height="1" fill="#ffffff"/><rect x="20" y="17" width="2" height="1" fill="#141414"/><rect x="22" y="17" width="6" height="1" fill="#3b5bd0"/><rect x="28" y="17" width="1" height="1" fill="#2fa84a"/><rect x="29" y="17" width="2" height="1" fill="#141414"/><rect x="1" y="18" width="2" height="1" fill="#141414"/><rect x="3" y="18" width="7" height="1" fill="#3b5bd0"/><rect x="10" y="18" width="2" height="1" fill="#141414"/><rect x="12" y="18" width="8" height="1" fill="#ffffff"/><rect x="20" y="18" width="2" height="1" fill="#141414"/><rect x="22" y="18" width="7" height="1" fill="#3b5bd0"/><rect x="29" y="18" width="2" height="1" fill="#141414"/><rect x="1" y="19" width="2" height="1" fill="#141414"/><rect x="3" y="19" width="7" height="1" fill="#3b5bd0"/><rect x="10" y="19" width="1" height="1" fill="#141414"/><rect x="11" y="19" width="10" height="1" fill="#ffffff"/><rect x="21" y="19" width="1" height="1" fill="#141414"/><rect x="22" y="19" width="7" height="1" fill="#3b5bd0"/><rect x="29" y="19" width="2" height="1" fill="#141414"/><rect x="1" y="20" width="2" height="1" fill="#141414"/><rect x="3" y="20" width="7" height="1" fill="#3b5bd0"/><rect x="10" y="20" width="1" height="1" fill="#141414"/><rect x="11" y="20" width="10" height="1" fill="#ffffff"/><rect x="21" y="20" width="1" height="1" fill="#141414"/><rect x="22" y="20" width="7" height="1" fill="#3b5bd0"/><rect x="29" y="20" width="2" height="1" fill="#141414"/><rect x="2" y="21" width="2" height="1" fill="#141414"/><rect x="4" y="21" width="2" height="1" fill="#2fa84a"/><rect x="6" y="21" width="4" height="1" fill="#3b5bd0"/><rect x="10" y="21" width="2" height="1" fill="#141414"/><rect x="12" y="21" width="8" height="1" fill="#ffffff"/><rect x="20" y="21" width="2" height="1" fill="#141414"/><rect x="22" y="21" width="4" height="1" fill="#3b5bd0"/><rect x="26" y="21" width="2" height="1" fill="#2fa84a"/><rect x="28" y="21" width="2" height="1" fill="#141414"/><rect x="2" y="22" width="2" height="1" fill="#141414"/><rect x="4" y="22" width="3" height="1" fill="#2fa84a"/><rect x="7" y="22" width="4" height="1" fill="#3b5bd0"/><rect x="11" y="22" width="1" height="1" fill="#141414"/><rect x="12" y="22" width="8" height="1" fill="#ffffff"/><rect x="20" y="22" width="1" height="1" fill="#141414"/><rect x="21" y="22" width="4" height="1" fill="#3b5bd0"/><rect x="25" y="22" width="3" height="1" fill="#2fa84a"/><rect x="28" y="22" width="2" height="1" fill="#141414"/><rect x="2" y="23" width="3" height="1" fill="#141414"/><rect x="5" y="23" width="2" height="1" fill="#2fa84a"/><rect x="7" y="23" width="2" height="1" fill="#3b5bd0"/><rect x="9" y="23" width="1" height="1" fill="#2fa84a"/><rect x="10" y="23" width="1" height="1" fill="#3b5bd0"/><rect x="11" y="23" width="1" height="1" fill="#141414"/><rect x="12" y="23" width="8" height="1" fill="#ffffff"/><rect x="20" y="23" width="1" height="1" fill="#141414"/><rect x="21" y="23" width="1" height="1" fill="#3b5bd0"/><rect x="22" y="23" width="1" height="1" fill="#2fa84a"/><rect x="23" y="23" width="2" height="1" fill="#3b5bd0"/><rect x="25" y="23" width="2" height="1" fill="#2fa84a"/><rect x="27" y="23" width="3" height="1" fill="#141414"/><rect x="3" y="24" width="3" height="1" fill="#141414"/><rect x="6" y="24" width="1" height="1" fill="#3b5bd0"/><rect x="7" y="24" width="4" height="1" fill="#2fa84a"/><rect x="11" y="24" width="2" height="1" fill="#141414"/><rect x="13" y="24" width="6" height="1" fill="#ffffff"/><rect x="19" y="24" width="2" height="1" fill="#141414"/><rect x="21" y="24" width="4" height="1" fill="#2fa84a"/><rect x="25" y="24" width="1" height="1" fill="#3b5bd0"/><rect x="26" y="24" width="3" height="1" fill="#141414"/><rect x="4" y="25" width="3" height="1" fill="#141414"/><rect x="7" y="25" width="5" height="1" fill="#2fa84a"/><rect x="12" y="25" width="1" height="1" fill="#141414"/><rect x="13" y="25" width="6" height="1" fill="#ffffff"/><rect x="19" y="25" width="1" height="1" fill="#141414"/><rect x="20" y="25" width="5" height="1" fill="#2fa84a"/><rect x="25" y="25" width="3" height="1" fill="#141414"/><rect x="5" y="26" width="3" height="1" fill="#141414"/><rect x="8" y="26" width="4" height="1" fill="#2fa84a"/><rect x="12" y="26" width="3" height="1" fill="#141414"/><rect x="15" y="26" width="2" height="1" fill="#ffffff"/><rect x="17" y="26" width="3" height="1" fill="#141414"/><rect x="20" y="26" width="4" height="1" fill="#2fa84a"/><rect x="24" y="26" width="3" height="1" fill="#141414"/><rect x="6" y="27" width="3" height="1" fill="#141414"/><rect x="9" y="27" width="3" height="1" fill="#2fa84a"/><rect x="12" y="27" width="2" height="1" fill="#3b5bd0"/><rect x="14" y="27" width="4" height="1" fill="#141414"/><rect x="18" y="27" width="2" height="1" fill="#3b5bd0"/><rect x="20" y="27" width="3" height="1" fill="#2fa84a"/><rect x="23" y="27" width="3" height="1" fill="#141414"/><rect x="7" y="28" width="4" height="1" fill="#141414"/><rect x="11" y="28" width="10" height="1" fill="#3b5bd0"/><rect x="21" y="28" width="4" height="1" fill="#141414"/><rect x="8" y="29" width="16" height="1" fill="#141414"/><rect x="11" y="30" width="10" height="1" fill="#141414"/></svg>